<svg id="visual" viewBox="0 0 540 960" width="540" height="960" xmlns="http://www.w3.org/2000/svg" xmlns:xlink="http://www.w3.org/1999/xlink" version="1.1"><g><g transform="translate(68 937)"><path d="M82 -45.2C98 -19.6 97 17.9 80.5 47.6C64 77.3 32 99.1 -0.8 99.6C-33.7 100.1 -67.4 79.2 -82.5 50.3C-97.7 21.4 -94.2 -15.5 -77.4 -41.5C-60.5 -67.6 -30.3 -82.7 1.4 -83.5C33 -84.3 66 -70.7 82 -45.2Z" fill="#E3A694"></path></g><g transform="translate(159 233)"><path d="M56.8 -30.9C69.3 -11.2 72.1 16.1 61.1 35.3C50 54.5 25 65.8 2.9 64.1C-19.2 62.5 -38.4 47.9 -50.6 28C-62.8 8.1 -68 -17.1 -58.4 -35.2C-48.8 -53.2 -24.4 -64.3 -1.1 -63.6C22.2 -63 44.3 -50.7 56.8 -30.9Z" fill="#E3A694"></path></g><g transform="translate(43 655)"><path d="M65.2 -39.9C77.5 -16.3 75.7 13.2 62.5 38.8C49.2 64.5 24.6 86.3 -1 86.9C-26.6 87.5 -53.3 66.8 -68.8 39.8C-84.4 12.8 -88.9 -20.5 -75.6 -44.7C-62.2 -68.9 -31.1 -83.9 -2.3 -82.6C26.4 -81.2 52.9 -63.5 65.2 -39.9Z" fill="#E3A694"></path></g><g transform="translate(421 529)"><path d="M50.6 -29.3C61.4 -10.6 63 13.4 53.1 33.6C43.1 53.8 21.5 70.2 1.1 69.6C-19.3 68.9 -38.5 51.1 -49.4 30.4C-60.3 9.7 -62.9 -14.1 -53.3 -32.1C-43.6 -50.2 -21.8 -62.6 -0.9 -62.1C19.9 -61.5 39.9 -48 50.6 -29.3Z" fill="#E3A694"></path></g><g transform="translate(533 940)"><path d="M65 -38.2C76.1 -18.3 71.3 10 57.8 33.6C44.3 57.2 22.2 76.1 -2.9 77.7C-27.9 79.4 -55.8 63.8 -68 41C-80.1 18.2 -76.6 -12 -62.6 -33.5C-48.7 -55.1 -24.3 -68 1.3 -68.7C27 -69.5 53.9 -58.1 65 -38.2Z" fill="#E3A694"></path></g><g transform="translate(446 89)"><path d="M72.6 -43.1C85.7 -19.3 82.1 13 67.2 35.1C52.4 57.2 26.2 69.1 0.8 68.6C-24.6 68.1 -49.1 55.3 -62.9 33.9C-76.7 12.5 -79.6 -17.6 -67.3 -40.9C-55.1 -64.3 -27.5 -80.9 1.1 -81.5C29.8 -82.2 59.5 -66.9 72.6 -43.1Z" fill="#E3A694"></path></g></g></svg>