<svg id="visual" viewBox="0 0 720 2400" width="720" height="2400" xmlns="http://www.w3.org/2000/svg" xmlns:xlink="http://www.w3.org/1999/xlink" version="1.1"><g><g transform="translate(120 29)"><path d="M133.3 -68C168 -16.8 188.1 51.7 163.5 101.2C138.8 150.7 69.4 181.1 2.1 179.9C-65.3 178.7 -130.5 145.9 -156.3 95.7C-182.1 45.6 -168.4 -21.9 -135.8 -71.8C-103.1 -121.8 -51.6 -154.3 -1.1 -153.6C49.3 -153 98.6 -119.2 133.3 -68Z" fill="#E3A694"></path></g><g transform="translate(375 2206)"><path d="M134.4 -75.9C163.4 -27.4 168.6 36.5 142.3 81.8C115.9 127 58 153.7 2.3 152.4C-53.4 151.1 -106.8 121.8 -139.1 73.1C-171.4 24.4 -182.5 -43.7 -155.8 -90.9C-129.1 -138.1 -64.5 -164.4 -5.9 -161C52.7 -157.5 105.4 -124.4 134.4 -75.9Z" fill="#E3A694"></path></g><g transform="translate(202 873)"><path d="M123.3 -65C151.3 -22.7 159.6 37.1 135.7 80.1C111.9 123.2 56 149.4 -2.8 151C-61.6 152.7 -123.2 129.7 -153.8 82.7C-184.4 35.8 -184 -35.1 -153.2 -79C-122.4 -122.9 -61.2 -139.8 -6.8 -135.9C47.7 -132 95.3 -107.2 123.3 -65Z" fill="#E3A694"></path></g><g transform="translate(473 1465)"><path d="M149.1 -76.9C182 -29 189.8 42.6 160.8 87.2C131.8 131.8 65.9 149.4 8.5 144.5C-48.9 139.6 -97.8 112.1 -127.4 67.2C-157 22.2 -167.4 -40.2 -142.9 -83.2C-118.5 -126.1 -59.2 -149.6 -0.6 -149.3C58.1 -148.9 116.1 -124.8 149.1 -76.9Z" fill="#E3A694"></path></g><g transform="translate(678 470)"><path d="M131.9 -75.1C155.6 -35.1 148.9 23.6 121.9 70.4C94.9 117.3 47.4 152.5 -8.8 157.6C-65.1 162.7 -130.2 137.7 -159.7 89.4C-189.2 41.1 -183.1 -30.5 -150.5 -75.7C-118 -120.8 -59 -139.5 -2.5 -138.1C54.1 -136.7 108.2 -115.2 131.9 -75.1Z" fill="#E3A694"></path></g><g transform="translate(13 1766)"><path d="M95.8 -60C116.1 -20.1 119.1 25.2 100.2 64.9C81.4 104.5 40.7 138.6 -4.3 141.1C-49.2 143.6 -98.4 114.4 -118.8 73.8C-139.2 33.2 -130.8 -18.7 -106.2 -61.2C-81.6 -103.6 -40.8 -136.5 -1.6 -135.6C37.7 -134.7 75.4 -100 95.8 -60Z" fill="#E3A694"></path></g></g></svg>