<svg id="visual" viewBox="0 0 720 2400" width="720" height="2400" xmlns="http://www.w3.org/2000/svg" xmlns:xlink="http://www.w3.org/1999/xlink" version="1.1"><path d="M229 0L222 57.2C215 114.3 201 228.7 204.3 343C207.7 457.3 228.3 571.7 231.8 686C235.3 800.3 221.7 914.7 211 1028.8C200.3 1143 192.7 1257 191.2 1371.2C189.7 1485.3 194.3 1599.7 199.2 1714C204 1828.3 209 1942.7 206.5 2057C204 2171.3 194 2285.7 189 2342.8L184 2400L0 2400L0 2342.8C0 2285.7 0 2171.3 0 2057C0 1942.7 0 1828.3 0 1714C0 1599.7 0 1485.3 0 1371.2C0 1257 0 1143 0 1028.8C0 914.7 0 800.3 0 686C0 571.7 0 457.3 0 343C0 228.7 0 114.3 0 57.2L0 0Z" fill="#fa7268"></path><path d="M243 0L241.7 57.2C240.3 114.3 237.7 228.7 235.7 343C233.7 457.3 232.3 571.7 221.3 686C210.3 800.3 189.7 914.7 187.8 1028.8C186 1143 203 1257 200.5 1371.2C198 1485.3 176 1599.7 168.3 1714C160.7 1828.3 167.3 1942.7 165.7 2057C164 2171.3 154 2285.7 149 2342.8L144 2400L0 2400L0 2342.8C0 2285.7 0 2171.3 0 2057C0 1942.7 0 1828.3 0 1714C0 1599.7 0 1485.3 0 1371.2C0 1257 0 1143 0 1028.8C0 914.7 0 800.3 0 686C0 571.7 0 457.3 0 343C0 228.7 0 114.3 0 57.2L0 0Z" fill="#ef5f67"></path><path d="M185 0L173.2 57.2C161.3 114.3 137.7 228.7 134.3 343C131 457.3 148 571.7 149 686C150 800.3 135 914.7 139 1028.8C143 1143 166 1257 167.8 1371.2C169.7 1485.3 150.3 1599.7 138.2 1714C126 1828.3 121 1942.7 122.5 2057C124 2171.3 132 2285.7 136 2342.8L140 2400L0 2400L0 2342.8C0 2285.7 0 2171.3 0 2057C0 1942.7 0 1828.3 0 1714C0 1599.7 0 1485.3 0 1371.2C0 1257 0 1143 0 1028.8C0 914.7 0 800.3 0 686C0 571.7 0 457.3 0 343C0 228.7 0 114.3 0 57.2L0 0Z" fill="#e34c67"></path><path d="M112 0L107.3 57.2C102.7 114.3 93.3 228.7 94 343C94.7 457.3 105.3 571.7 111.5 686C117.7 800.3 119.3 914.7 112.2 1028.8C105 1143 89 1257 88.5 1371.2C88 1485.3 103 1599.7 112.8 1714C122.7 1828.3 127.3 1942.7 120.2 2057C113 2171.3 94 2285.7 84.5 2342.8L75 2400L0 2400L0 2342.8C0 2285.7 0 2171.3 0 2057C0 1942.7 0 1828.3 0 1714C0 1599.7 0 1485.3 0 1371.2C0 1257 0 1143 0 1028.8C0 914.7 0 800.3 0 686C0 571.7 0 457.3 0 343C0 228.7 0 114.3 0 57.2L0 0Z" fill="#d53867"></path><path d="M73 0L72.8 57.2C72.7 114.3 72.3 228.7 68.5 343C64.7 457.3 57.3 571.7 57.8 686C58.3 800.3 66.7 914.7 72.5 1028.8C78.3 1143 81.7 1257 82.5 1371.2C83.3 1485.3 81.7 1599.7 77.2 1714C72.7 1828.3 65.3 1942.7 63.8 2057C62.3 2171.3 66.7 2285.7 68.8 2342.8L71 2400L0 2400L0 2342.8C0 2285.7 0 2171.3 0 2057C0 1942.7 0 1828.3 0 1714C0 1599.7 0 1485.3 0 1371.2C0 1257 0 1143 0 1028.8C0 914.7 0 800.3 0 686C0 571.7 0 457.3 0 343C0 228.7 0 114.3 0 57.2L0 0Z" fill="#c62368"></path></svg>